<svg width="42" height="32" viewBox="0 0 42 32" fill="none" xmlns="http://www.w3.org/2000/svg">
<path d="M35.1013 2.6362C32.4585 1.41867 29.6245 0.521653 26.6614 0.00789246C26.6074 -0.00202295 26.5535 0.0227562 26.5257 0.0723157C26.1612 0.723186 25.7575 1.5723 25.4748 2.2397C22.2878 1.76064 19.1171 1.76064 15.9954 2.2397C15.7126 1.55746 15.2942 0.723186 14.9281 0.0723157C14.9003 0.0244097 14.8464 -0.000369403 14.7925 0.00789246C11.831 0.520011 8.99699 1.41703 6.35256 2.6362C6.32967 2.64611 6.31005 2.66264 6.29702 2.6841C0.921529 10.7474 -0.551044 18.6126 0.171351 26.3802C0.17462 26.4182 0.195867 26.4545 0.225286 26.4776C3.77188 29.0927 7.20737 30.6803 10.5791 31.7326C10.633 31.7491 10.6902 31.7293 10.7245 31.6847C11.5221 30.5911 12.2331 29.438 12.8427 28.2254C12.8786 28.1544 12.8443 28.0701 12.7708 28.042C11.6431 27.6125 10.5692 27.0889 9.53632 26.4942C9.45462 26.4463 9.44808 26.3289 9.52324 26.2728C9.7406 26.1092 9.95803 25.9391 10.1656 25.7672C10.2031 25.7359 10.2555 25.7293 10.2996 25.7491C17.0855 28.8598 24.432 28.8598 31.1379 25.7491C31.182 25.7276 31.2343 25.7342 31.2735 25.7656C31.4811 25.9374 31.6985 26.1092 31.9175 26.2728C31.9927 26.3289 31.9878 26.4463 31.9061 26.4942C30.8731 27.1004 29.7993 27.6125 28.67 28.0404C28.5965 28.0685 28.5638 28.1544 28.5997 28.2254C29.2224 29.4363 29.9334 30.5894 30.7162 31.683C30.7489 31.7293 30.8077 31.7491 30.8617 31.7326C34.2497 30.6803 37.6852 29.0927 41.2318 26.4776C41.2629 26.4545 41.2825 26.4198 41.2858 26.3818C42.1503 17.4016 39.8377 9.60097 35.1552 2.68574C35.1437 2.66264 35.1242 2.64611 35.1013 2.6362ZM13.856 21.6505C11.813 21.6505 10.1296 19.7673 10.1296 17.4545C10.1296 15.1417 11.7804 13.2585 13.856 13.2585C15.948 13.2585 17.6151 15.1582 17.5824 17.4545C17.5824 19.7673 15.9316 21.6505 13.856 21.6505ZM27.6338 21.6505C25.5908 21.6505 23.9074 19.7673 23.9074 17.4545C23.9074 15.1417 25.5581 13.2585 27.6338 13.2585C29.7258 13.2585 31.3928 15.1582 31.3602 17.4545C31.3602 19.7673 29.7258 21.6505 27.6338 21.6505Z" fill="white"/>
</svg>
