<svg width="59" height="45" viewBox="0 0 59 45" fill="none" xmlns="http://www.w3.org/2000/svg">
<path d="M49.7771 3.73025C46.0294 2.00368 42.0105 0.731619 37.8085 0.00305623C37.7319 -0.0110048 37.6555 0.0241345 37.6161 0.0944147C37.0992 1.01741 36.5267 2.22154 36.1258 3.16798C31.6063 2.48863 27.1099 2.48863 22.6831 3.16798C22.2821 2.2005 21.6888 1.01741 21.1696 0.0944147C21.1302 0.0264794 21.0537 -0.00865992 20.9772 0.00305623C16.7775 0.729291 12.7586 2.00135 9.00857 3.73025C8.9761 3.74431 8.94828 3.76776 8.92981 3.79819C1.30682 15.2328 -0.781435 26.3863 0.242993 37.4016C0.247629 37.4555 0.277759 37.507 0.319478 37.5398C5.34891 41.2482 10.2208 43.4995 15.0022 44.9918C15.0787 45.0152 15.1598 44.9871 15.2085 44.9239C16.3395 43.3731 17.3477 41.7379 18.2122 40.0183C18.2632 39.9176 18.2145 39.7981 18.1102 39.7583C16.511 39.1492 14.9882 38.4066 13.5235 37.5632C13.4076 37.4953 13.3983 37.3289 13.5049 37.2492C13.8131 37.0173 14.1215 36.776 14.4158 36.5324C14.4691 36.4879 14.5433 36.4785 14.6059 36.5066C24.229 40.9179 34.6471 40.9179 44.1566 36.5066C44.2192 36.4762 44.2934 36.4856 44.349 36.5301C44.6434 36.7737 44.9517 37.0173 45.2622 37.2492C45.3688 37.3289 45.3618 37.4953 45.246 37.5632C43.7812 38.4229 42.2584 39.1492 40.6569 39.756C40.5526 39.7958 40.5063 39.9176 40.5573 40.0183C41.4403 41.7355 42.4485 43.3707 43.5587 44.9215C43.605 44.9871 43.6884 45.0152 43.765 44.9918C48.5695 43.4995 53.4414 41.2482 58.4708 37.5398C58.5149 37.507 58.5427 37.4578 58.5473 37.4039C59.7733 24.6691 56.4938 13.607 49.8535 3.80052C49.8373 3.76776 49.8096 3.74431 49.7771 3.73025ZM19.6492 30.6944C16.752 30.6944 14.3648 28.0238 14.3648 24.7441C14.3648 21.4643 16.7057 18.7937 19.6492 18.7937C22.6158 18.7937 24.9799 21.4877 24.9336 24.7441C24.9336 28.0238 22.5926 30.6944 19.6492 30.6944ZM39.1875 30.6944C36.2903 30.6944 33.9031 28.0238 33.9031 24.7441C33.9031 21.4643 36.244 18.7937 39.1875 18.7937C42.1542 18.7937 44.5182 21.4877 44.4719 24.7441C44.4719 28.0238 42.1542 30.6944 39.1875 30.6944Z" fill="white"/>
</svg>
