<svg width="57" height="57" viewBox="0 0 57 57" fill="none" xmlns="http://www.w3.org/2000/svg">
<path d="M45.125 0H11.875C5.31763 0 0 5.31763 0 11.875V45.125C0 51.6824 5.31763 57 11.875 57H45.125C51.6847 57 57 51.6824 57 45.125V11.875C57 5.31763 51.6847 0 45.125 0ZM19 45.125H11.875V19H19V45.125ZM15.4375 15.9885C13.1432 15.9885 11.2812 14.1122 11.2812 11.799C11.2812 9.48575 13.1432 7.6095 15.4375 7.6095C17.7318 7.6095 19.5938 9.48575 19.5938 11.799C19.5938 14.1122 17.7341 15.9885 15.4375 15.9885ZM47.5 45.125H40.375V31.8155C40.375 23.8165 30.875 24.4221 30.875 31.8155V45.125H23.75V19H30.875V23.1919C34.1905 17.0501 47.5 16.5965 47.5 29.0724V45.125Z" fill="white"/>
</svg>
