<svg width="57" height="57" viewBox="0 0 57 57" fill="none" xmlns="http://www.w3.org/2000/svg">
<path d="M18.0877 51.3025C39.2669 51.3025 50.8512 33.7552 50.8512 18.539C50.8512 18.0407 50.8512 17.5443 50.8175 17.0504C53.0713 15.4203 55.0163 13.4023 56.5623 11.0899C54.4607 12.021 52.2313 12.6321 49.9482 12.9015C52.3523 11.4622 54.1514 9.19913 55.0107 6.53254C52.7501 7.87394 50.2775 8.81934 47.6988 9.32759C43.3379 4.69038 36.0435 4.46651 31.4063 8.82745C28.4154 11.64 27.147 15.8307 28.0749 19.8299C18.8173 19.3653 10.1908 14.9925 4.34383 7.79848C1.28749 13.0599 2.8484 19.7912 7.90904 23.17C6.07623 23.1157 4.28396 22.6212 2.68252 21.7288C2.68252 21.7762 2.68252 21.8255 2.68252 21.8747C2.68376 27.3563 6.54769 32.0771 11.9208 33.1628C10.2258 33.6249 8.4466 33.6929 6.72105 33.3605C8.22958 38.0513 12.5525 41.2648 17.479 41.3571C13.4012 44.5619 8.36428 46.3011 3.17829 46.2961C2.2622 46.2943 1.34736 46.2388 0.4375 46.1296C5.70331 49.509 11.831 51.3013 18.0877 51.2932" fill="white"/>
</svg>
