<svg width="135" height="30" viewBox="0 0 135 30" fill="none" xmlns="http://www.w3.org/2000/svg">
<path d="M130.911 16.883C129.856 16.883 128.661 17.3212 127.697 18.2161V17.1318H125.174V26.0283H127.699V19.9309C128.442 19.3372 129.326 19.0092 130.018 19.0092C130.846 19.0092 131.479 19.48 131.479 20.5402V26.0283H134.003V20.2321C134.003 17.9376 132.571 16.8872 130.916 16.8872L130.911 16.883ZM119.765 19.0233C121.159 19.0233 122.015 20.0695 122.015 21.5878C122.015 23.1061 121.155 24.1509 119.765 24.1509C118.376 24.1509 117.516 23.0906 117.516 21.5878C117.516 20.085 118.357 19.0233 119.765 19.0233ZM119.765 16.89C116.869 16.8717 114.957 18.971 114.957 21.5864C114.957 24.2018 116.869 26.2842 119.765 26.2842C122.662 26.2842 124.573 24.1848 124.573 21.5864C124.573 18.988 122.685 16.883 119.765 16.883V16.89ZM114.529 24.0067C114.133 24.1396 113.72 24.2148 113.303 24.23C112.629 24.23 112.142 23.9402 112.142 23.0821V19.0573H114.568V17.1304H112.142V14.7271H109.618V17.1304H109.562L107.886 17.4965V19.0516H109.618V23.4058C109.618 25.4953 110.992 26.2799 112.553 26.2757C113.417 26.2604 114.267 26.0526 115.038 25.6678L114.529 24.0067ZM103.453 24.1961C102.697 24.1961 101.83 23.7847 101.089 23.0651V20.0553C101.821 19.3358 102.73 18.9866 103.456 18.9866C104.656 18.9866 105.354 20.0582 105.348 21.5807C105.348 23.263 104.56 24.1862 103.453 24.1961ZM103.963 16.883C102.98 16.883 101.95 17.2972 101.089 18.0988V17.1318H98.566V29.5866H101.089V25.1108C101.962 25.894 102.992 26.2813 103.937 26.2785C106.165 26.2785 107.899 24.3869 107.903 21.5807C107.903 18.964 106.313 16.8745 103.963 16.883ZM94.585 16.883C93.413 16.883 92.129 17.4032 91.118 18.3462C90.599 17.3453 89.634 16.883 88.565 16.883C87.52 16.883 86.393 17.3354 85.485 18.209V17.1318H82.96V26.0283H85.485V19.8984C86.146 19.3329 86.932 19.0092 87.592 19.0078C88.387 19.0078 89 19.4743 88.997 20.5402V26.0283H91.522V20.2321C91.522 20.0907 91.522 19.9493 91.507 19.8192C92.181 19.3061 92.952 19.012 93.599 19.0106C94.416 19.0106 95.032 19.4715 95.032 20.5445V26.0325H97.556V20.2363C97.556 17.9235 96.198 16.8915 94.582 16.8915L94.585 16.883ZM76.9172 24.1735C75.7138 24.1735 75.0247 23.1528 75.0247 21.5793C75.0247 20.0059 75.741 18.988 76.9172 18.9866C77.6336 18.9866 78.5519 19.3414 79.2639 20.0398V23.1231C78.5476 23.8229 77.6307 24.1763 76.9172 24.1777V24.1735ZM81.788 17.136H79.2639V18.0903C78.3628 17.2548 77.3298 16.8872 76.3585 16.8872C74.0662 16.8872 72.4645 18.9682 72.4645 21.5836C72.4645 24.1989 74.0691 26.2813 76.3585 26.2813C77.3298 26.2813 78.3642 25.9138 79.2639 25.0783V26.0325H81.788V17.136ZM68.4717 16.8886C67.3814 16.8886 66.1995 17.3438 65.2553 18.2203V13.5735H62.731V26.0283H65.2553V19.9239C65.9717 19.3372 66.8126 19.0106 67.5204 19.0078C68.38 19.0078 69.0333 19.4771 69.0333 20.5402V26.0283H71.5576V20.2321C71.5576 17.9362 70.1321 16.8886 68.4717 16.8886ZM61.3083 24.0109C60.9127 24.1438 60.4996 24.219 60.082 24.2343C59.4072 24.2343 58.9215 23.9445 58.9215 23.0863V19.0573H61.347V17.1304H58.923V14.7271H56.3986V17.1304H56.3427L54.6665 17.4965V19.0516H56.3986V23.4058C56.3986 25.4953 57.7711 26.2799 59.3341 26.2757C60.198 26.2601 61.0472 26.0523 61.8184 25.6678L61.3083 24.0109ZM53.8069 17.136H51.284V23.2475C50.5834 23.8384 49.7424 24.1593 49.0146 24.1565C48.188 24.1565 47.6651 23.6419 47.6651 22.6241V17.1318H45.1407V22.928C45.1407 25.2408 46.5218 26.2728 48.1722 26.2728C49.2081 26.2728 50.3613 25.8205 51.284 24.9482V26.024H53.8083L53.8069 17.136ZM39.6421 19.0233C41.0361 19.0233 41.8929 20.0695 41.8929 21.5878C41.8929 23.1061 41.0333 24.1509 39.6421 24.1509C38.251 24.1509 37.3929 23.0906 37.3929 21.5878C37.3929 20.085 38.2353 19.0233 39.6421 19.0233ZM39.6421 16.89C36.7467 16.8717 34.8341 18.971 34.8341 21.5864C34.8341 24.2018 36.7467 26.2842 39.6421 26.2842C42.5376 26.2842 44.4516 24.1848 44.4516 21.5864C44.4516 18.988 42.5591 16.89 39.6421 16.89ZM29.4015 13.3232C26.8742 13.3232 24.539 14.3892 24.5304 17.2039C24.5304 19.4163 25.9631 20.0426 28.9717 20.8711C30.7324 21.3517 31.5075 21.5383 31.4889 22.4714C31.4803 23.362 30.6851 23.9784 29.294 23.9741C27.9946 23.9741 26.5118 23.4256 25.7224 22.4728L24.2109 24.1438C25.2654 25.4755 27.3628 26.2771 29.2926 26.2771C31.5376 26.2771 34.2668 25.1815 34.2482 22.3837C34.2295 19.6906 31.7324 19.1039 29.8298 18.5964C27.6121 18.0083 27.2596 17.7665 27.2911 17.0696C27.3485 16.0093 28.1722 15.6417 29.3757 15.6389C30.5154 15.6217 31.6271 15.9882 32.5275 16.678L34.0032 14.9094C32.9229 13.9467 31.327 13.3232 29.4086 13.3232" fill="white"/>
<path d="M95.9855 4.18667C96.3945 4.19477 96.7985 4.27917 97.1755 4.43547L97.4805 3.57307C96.9655 3.29157 96.3895 3.13687 95.8005 3.12207C94.7085 3.12207 93.8605 3.80487 93.8605 5.31617V5.56077H93.8075L92.7635 5.76147V6.55177H93.8605V11.1068H95.1245V6.55177H96.7205V5.56217H95.1245V5.24827C95.1245 4.56127 95.4405 4.18667 95.9855 4.18667ZM89.7805 6.52207C90.7645 6.52207 91.3705 7.26007 91.3705 8.33307C91.3705 9.40607 90.7645 10.144 89.7805 10.144C88.7955 10.144 88.1915 9.39477 88.1915 8.33307C88.1915 7.27137 88.7855 6.52207 89.7805 6.52207ZM89.7805 5.40527C88.0405 5.39397 86.8935 6.70307 86.8935 8.33307C86.8935 9.96307 88.0395 11.2609 89.7805 11.2609C91.5205 11.2609 92.6685 9.95177 92.6685 8.33307C92.6685 6.71437 91.5325 5.40527 89.7805 5.40527ZM84.3215 5.56077H83.0005L81.3865 9.58557L79.6828 5.56077H78.3103L80.7845 11.087L79.8876 13.3249H81.0485L84.3215 5.56077ZM77.945 10.0408C77.6875 10.1316 77.4173 10.1827 77.1441 10.1921C76.7143 10.1921 76.3647 10.0182 76.3647 9.45977V6.55177H77.955V5.56217H76.3647V4.01977H75.1011V5.56077H75.0495L74.0037 5.76147V6.55177H75.1011V9.55167C75.1011 10.7901 75.9134 11.2651 76.8131 11.2609C77.309 11.2535 77.7952 11.1238 78.2272 10.8834L77.945 10.0408ZM73.5682 5.56077H72.3046V11.1068H73.5682V5.56077ZM72.9364 3.29877C72.7898 3.30077 72.6472 3.34547 72.5264 3.42727C72.4056 3.50917 72.312 3.62447 72.2575 3.75867C72.203 3.89287 72.19 4.03997 72.2201 4.18147C72.2502 4.32297 72.3221 4.45257 72.4267 4.55377C72.5313 4.65507 72.664 4.72347 72.8079 4.75047C72.9519 4.77747 73.1007 4.76177 73.2356 4.70547C73.3706 4.64907 73.4856 4.55457 73.5662 4.43377C73.6468 4.31307 73.6893 4.17147 73.6885 4.02687C73.6878 3.92997 73.6677 3.83417 73.6294 3.74487C73.5911 3.65567 73.5354 3.57467 73.4654 3.50667C73.3954 3.43867 73.3126 3.38497 73.2216 3.34857C73.1305 3.31217 73.0331 3.29387 72.9349 3.29457L72.9364 3.29877ZM69.3633 5.40527C68.2458 5.40527 67.1312 5.85907 67.1326 7.12857C67.1326 8.09557 67.7831 8.42347 69.2057 8.79107C69.9521 8.98617 70.4564 9.06537 70.4536 9.52907C70.4507 9.99277 69.9378 10.2585 69.2372 10.2585C68.5639 10.2585 67.8547 10.0196 67.5109 9.56437L66.9822 10.3815C67.4507 10.9555 68.3776 11.2595 69.2816 11.2595C70.4091 11.2595 71.7172 10.7901 71.7172 9.50787C71.7172 8.25247 70.4779 7.98387 69.5596 7.75057C68.6169 7.51167 68.3762 7.38727 68.3876 7.05367C68.3991 6.61397 68.8174 6.40897 69.4134 6.40897C70.0094 6.40897 70.6412 6.59417 70.998 6.94477L71.5266 6.13047C70.9836 5.60737 70.114 5.40387 69.3705 5.40387L69.3633 5.40527ZM66.7931 5.39817C65.9721 5.42637 65.1914 5.75607 64.604 6.32277V5.56077H63.3404V11.1068H64.604V7.36467C65.1437 6.89687 65.8315 6.62897 66.5495 6.60687C66.6087 6.60327 66.668 6.60327 66.7272 6.60687L66.9435 5.39677C66.8948 5.39677 66.8447 5.39677 66.7931 5.39677V5.39817ZM60.0696 6.48957C60.8948 6.48957 61.3031 6.98717 61.422 7.76187H58.6097C58.7673 6.99427 59.2874 6.49097 60.0696 6.49097V6.48957ZM60.0352 5.40387C58.3633 5.39537 57.2601 6.70157 57.2601 8.33167C57.2601 9.96167 58.369 11.2595 60.0481 11.2595C60.8349 11.2475 61.5963 10.983 62.2172 10.5059L61.9134 9.69307C61.3669 9.99047 60.7565 10.1553 60.1326 10.1737C59.2945 10.1737 58.72 9.61667 58.5911 8.73877C58.5911 8.70627 58.5811 8.67377 58.5782 8.63977H62.6928C62.6928 8.55637 62.7014 8.47157 62.7014 8.38677C62.7014 6.67337 61.7831 5.40667 60.0352 5.40667V5.40387ZM57.4278 5.55937H56.0882L54.5123 9.76657L52.9278 5.56077H51.5882L53.8332 11.1068H55.1828L57.4278 5.55937ZM51.0653 5.55937H49.8017V11.1068H51.0653V5.55937ZM50.4335 3.29737C50.2872 3.29967 50.1449 3.34447 50.0244 3.42627C49.9038 3.50807 49.8105 3.62317 49.7561 3.75717C49.7017 3.89117 49.6886 4.03807 49.7185 4.17937C49.7484 4.32067 49.82 4.45007 49.9242 4.55137C50.0285 4.65267 50.1607 4.72127 50.3043 4.74867C50.448 4.77597 50.5966 4.76087 50.7315 4.70507C50.8665 4.64937 50.9817 4.55547 51.0628 4.43537C51.1438 4.31517 51.1871 4.17407 51.1871 4.02967C51.1852 3.83407 51.1048 3.64717 50.9636 3.50997C50.8223 3.37267 50.6317 3.29627 50.4335 3.29737ZM46.9951 5.40807C46.2443 5.42717 45.5282 5.72447 44.9894 6.24077V5.56077H43.7258V11.1068H44.9894V7.18087C45.5123 6.74547 46.1441 6.51357 46.6283 6.51357C47.2014 6.51357 47.6498 6.84727 47.6498 7.57807V11.1068H48.9134V7.49047C48.9134 6.06547 48.0166 5.40527 46.9908 5.40527L46.9951 5.40807ZM42.8619 3.34267H41.4908V8.40087C41.4908 9.42447 40.7315 10.0861 39.5696 10.0875C38.4077 10.0889 37.6484 9.42157 37.6484 8.40087V3.34267H36.2773V8.40087C36.2773 10.0592 37.6656 11.2595 39.5725 11.2595C41.4793 11.2595 42.8676 10.0592 42.8676 8.40087L42.8619 3.34267Z" fill="white"/>
<path d="M4.28067 5.11276C4.28347 4.98746 4.26206 4.86276 4.21766 4.74526C4.09096 4.73586 3.96367 4.75216 3.84377 4.79326C3.87997 4.95496 3.87257 5.12316 3.82227 5.28106C3.95797 5.18716 4.11577 5.12926 4.28067 5.11276Z" fill="white"/>
<path d="M3.89353 5.83332C3.91273 5.82702 3.93293 5.82442 3.95313 5.82592C3.97333 5.82732 3.99293 5.83282 4.01103 5.84182C4.02923 5.85092 4.04543 5.86352 4.05873 5.87872C4.07193 5.89402 4.08203 5.91172 4.08833 5.93092C4.10023 5.96942 4.09663 6.01092 4.07833 6.04682C4.06933 6.06492 4.05673 6.08102 4.04113 6.09422C4.02563 6.10732 4.00763 6.11722 3.98803 6.12322L3.72733 6.20662C3.72733 6.22212 3.72733 6.23912 3.72733 6.25462V6.27162C3.94943 6.35082 4.25173 6.42712 4.47093 6.35642C4.63353 6.31582 4.77373 6.21442 4.86203 6.07372C4.91443 5.95472 4.92103 5.82082 4.88033 5.69742C4.83973 5.57392 4.75473 5.46942 4.64133 5.40362C4.48623 5.34072 4.31223 5.34072 4.15713 5.40362C3.94083 5.47292 3.74313 5.70612 3.61133 5.89702L3.62563 5.91682L3.89353 5.83332Z" fill="white"/>
<path d="M2.95006 5.65841V5.37572C2.95376 5.33792 2.97156 5.30292 3.00006 5.27732C3.02856 5.25182 3.06566 5.23771 3.10406 5.23771C3.14256 5.23771 3.17966 5.25182 3.20806 5.27732C3.23656 5.30292 3.25436 5.33792 3.25806 5.37572V5.65841L3.30826 5.67402C3.45146 5.49162 3.61056 5.23721 3.61056 5.01381C3.61056 4.63921 3.42566 4.42432 3.10336 4.42432C2.78096 4.42432 2.59766 4.63921 2.59766 5.01381C2.59766 5.23721 2.75806 5.49162 2.89996 5.67402L2.95006 5.65841Z" fill="white"/>
<path d="M2.38678 5.2793C2.33868 5.1229 2.33138 4.9571 2.36528 4.7972C2.24598 4.7552 2.11938 4.7369 1.99278 4.7435C1.94448 4.859 1.92108 4.9833 1.92408 5.1082C2.09098 5.1236 2.25078 5.1826 2.38678 5.2793Z" fill="white"/>
<path d="M3.10379 6.67332C3.33799 6.67332 3.52779 6.48593 3.52779 6.25483C3.52779 6.02373 3.33799 5.83643 3.10379 5.83643C2.86959 5.83643 2.67969 6.02373 2.67969 6.25483C2.67969 6.48593 2.86959 6.67332 3.10379 6.67332Z" fill="white"/>
<path d="M8.63075 7.95294H9.00605C9.78835 7.95294 10.6165 8.29504 11.2612 8.73614V4.15294C10.7526 3.61424 9.92015 3.47294 9.18235 3.35134C8.90215 3.31144 8.62465 3.25484 8.35135 3.18164C7.94595 3.06674 7.55595 2.90444 7.18945 2.69824V7.83424C7.55055 7.96564 8.07205 7.95864 8.63075 7.95294Z" fill="white"/>
<path d="M13.8724 8.04064C14.5285 8.06184 15.1489 8.08024 15.5658 7.85684V2.69824C15.1996 2.90494 14.8095 3.06734 14.4039 3.18164C14.1306 3.25484 13.8532 3.31144 13.5729 3.35134C12.8365 3.47434 11.997 3.61284 11.4941 4.15294V8.73334C12.1969 8.26894 13.0266 8.02724 13.8724 8.04064Z" fill="white"/>
<path d="M2.91656 6.84169L2.87206 6.82609L2.71596 7.03819C2.69096 7.06979 2.65476 7.09089 2.61456 7.09719C2.57436 7.10349 2.53336 7.09449 2.49956 7.07209C2.46816 7.04869 2.44686 7.01439 2.43996 6.97609C2.43306 6.93779 2.44106 6.89839 2.46236 6.86569L2.62136 6.65079L2.60706 6.63379C2.16146 6.75829 1.99676 6.92929 1.94656 6.99859C1.72026 7.30539 1.74176 7.57959 2.00536 7.76909C2.26896 7.95849 2.54116 7.89349 2.76606 7.58669C2.90216 7.39439 2.91656 7.08059 2.91656 6.84169Z" fill="white"/>
<path d="M3.10104 7.45947C3.07504 7.53047 3.04194 7.59867 3.00214 7.66307L2.96344 7.72107C2.92484 7.77147 2.88224 7.81877 2.83594 7.86237C2.90744 7.96287 2.99734 8.04917 3.10104 8.11687C3.20784 8.05227 3.30004 7.96667 3.37174 7.86527L3.32884 7.82137C3.22714 7.71857 3.14944 7.59507 3.10104 7.45947Z" fill="white"/>
<path d="M1.73737 6.3565C1.95657 6.4258 2.25887 6.3565 2.48087 6.2717V6.2547C2.48087 6.2391 2.48087 6.2222 2.48087 6.2066L2.21877 6.1232C2.18027 6.11 2.14847 6.0826 2.13007 6.0467C2.11167 6.0109 2.10797 5.9694 2.11987 5.931C2.12617 5.9118 2.13627 5.8941 2.14957 5.8788C2.16277 5.8635 2.17907 5.851 2.19727 5.8419C2.21527 5.8328 2.23497 5.8274 2.25507 5.8259C2.27527 5.8245 2.29557 5.827 2.31467 5.8334L2.58117 5.9182L2.59547 5.8984C2.46367 5.7076 2.26597 5.4743 2.04967 5.4051C1.96387 5.3757 1.87397 5.36 1.78317 5.3584C1.69917 5.3618 1.61727 5.3857 1.54477 5.4278C1.47227 5.47 1.41147 5.5291 1.36767 5.6C1.32387 5.6709 1.29847 5.7513 1.29377 5.8342C1.28907 5.9171 1.30507 5.9999 1.34047 6.0752C1.43007 6.2169 1.57267 6.318 1.73737 6.3565Z" fill="white"/>
<path d="M3.60167 6.62695L3.58737 6.64385L3.74497 6.86585C3.76917 6.89835 3.77947 6.93895 3.77357 6.97895C3.77037 6.99895 3.76317 7.01815 3.75227 7.03535C3.74147 7.05265 3.72727 7.06755 3.71057 7.07935C3.67707 7.10165 3.63627 7.11055 3.59627 7.10425C3.55637 7.09795 3.52037 7.07695 3.49567 7.04535L3.34527 6.82625L3.30087 6.84175C3.28217 7.30125 3.39677 7.51045 3.44407 7.57975C3.66757 7.88225 3.94557 7.94875 4.20487 7.76215C4.46417 7.57555 4.49137 7.29845 4.26497 6.99165C4.20487 6.92235 4.04577 6.75135 3.60167 6.62695Z" fill="white"/>
<path d="M4.54792 6.58301C4.49382 6.59961 4.43813 6.61051 4.38173 6.61551C4.34443 6.61551 4.30582 6.62401 4.26562 6.62541C4.39873 6.72451 4.50342 6.85611 4.56942 7.00711C4.69062 6.97071 4.80382 6.91221 4.90322 6.83471C4.87472 6.71471 4.82102 6.60201 4.74562 6.50391C4.68202 6.53551 4.61592 6.56201 4.54792 6.58301Z" fill="white"/>
<path d="M19.5775 7.45947C19.5511 7.53047 19.5175 7.59867 19.4773 7.66307C19.4658 7.68287 19.4529 7.70267 19.44 7.72107C19.4011 7.77117 19.3584 7.81837 19.3125 7.86237C19.3832 7.96347 19.4732 8.04997 19.5775 8.11687C19.6844 8.05227 19.7766 7.96667 19.8483 7.86527L19.8053 7.82137C19.7037 7.71857 19.6259 7.59507 19.5775 7.45947Z" fill="white"/>
<path d="M21.0224 6.58301C20.9688 6.59971 20.9136 6.61061 20.8576 6.61551C20.8204 6.61551 20.7803 6.62401 20.7402 6.62541C20.8735 6.72461 20.9786 6.85611 21.0453 7.00711C21.1665 6.97071 21.2797 6.91221 21.3791 6.83471C21.3503 6.71491 21.2966 6.60221 21.2215 6.50391C21.1574 6.53551 21.0908 6.56201 21.0224 6.58301Z" fill="white"/>
<path d="M20.0762 6.62695L20.0633 6.64385L20.2209 6.85875C20.2447 6.89165 20.2544 6.93255 20.248 6.97245C20.2415 7.01235 20.2195 7.04825 20.1865 7.07225C20.153 7.09455 20.1122 7.10355 20.0722 7.09725C20.0323 7.09095 19.9963 7.06985 19.9716 7.03835L19.814 6.82625L19.7696 6.84175C19.751 7.30125 19.867 7.51045 19.9129 7.57975C20.1392 7.88655 20.41 7.95155 20.6736 7.76215C20.7325 7.72495 20.7821 7.67505 20.8188 7.61635C20.8555 7.55765 20.8784 7.49145 20.8856 7.42285C20.8876 7.26795 20.8332 7.11745 20.7323 6.99875C20.6808 6.92235 20.5217 6.75135 20.0762 6.62695Z" fill="white"/>
<path d="M18.4172 6.62515H18.3886C18.3022 6.62475 18.2164 6.61245 18.1336 6.58835C18.066 6.56645 18.0003 6.53905 17.9373 6.50635C17.8631 6.60385 17.8082 6.71415 17.7754 6.83155C17.8733 6.91185 17.987 6.97155 18.1092 7.00685C18.1767 6.85545 18.2828 6.72395 18.4172 6.62515Z" fill="white"/>
<path d="M19.3907 6.84175L19.3478 6.82625L19.1916 7.03835C19.1664 7.06965 19.1302 7.09055 19.0901 7.09685C19.0501 7.10315 19.0091 7.09435 18.9753 7.07225C18.9423 7.04825 18.9202 7.01235 18.9138 6.97245C18.9073 6.93255 18.9171 6.89165 18.9409 6.85875L19.0999 6.64385L19.0856 6.62695C18.64 6.75135 18.4753 6.92235 18.4251 6.99165C18.1988 7.29845 18.2202 7.57265 18.4839 7.76215C18.538 7.80575 18.6014 7.83675 18.6694 7.85295C18.7373 7.86915 18.8081 7.86995 18.8764 7.85545C19.0299 7.80855 19.1608 7.70795 19.2446 7.57265C19.3764 7.39455 19.3907 7.08075 19.3907 6.84175Z" fill="white"/>
<path d="M22.7536 3.33153L22.3811 3.16183C22.1863 3.07273 17.5387 0.994629 11.4255 0.994629C5.3123 0.994629 0.577401 3.07703 0.378201 3.16463L0 3.33153V12.9291C0.0819 15.0697 0.467699 17.1883 1.1461 19.223C2.8782 24.3435 6.3625 27.8834 11.2249 29.4568C11.2892 29.4777 11.3564 29.4882 11.4241 29.488C11.4917 29.4881 11.5589 29.4776 11.6232 29.4568C16.4943 27.8834 19.9556 24.3392 21.6519 19.2074C22.3125 17.1806 22.6833 15.0727 22.7536 12.9447V12.915C22.7665 12.4471 22.7536 3.33153 22.7536 3.33153ZM6.1648 3.72163C6.1645 3.70523 6.168 3.68903 6.1749 3.67403C6.1819 3.65913 6.1921 3.64593 6.2049 3.63543C6.2176 3.62463 6.2324 3.61673 6.2485 3.61203C6.2646 3.60743 6.2814 3.60623 6.298 3.60853L6.5602 3.64813V3.13923C6.5599 3.12103 6.564 3.10303 6.5722 3.08683C6.5804 3.07053 6.5925 3.05653 6.6074 3.04583C6.6223 3.03513 6.6396 3.02813 6.6578 3.02543C6.676 3.02273 6.6946 3.02443 6.712 3.03033L6.9585 3.11093V2.49033C6.9585 2.46913 6.9645 2.44843 6.9758 2.43043C6.987 2.41253 7.0031 2.39793 7.0223 2.38843C7.0414 2.37893 7.0629 2.37483 7.0842 2.37653C7.1056 2.37833 7.126 2.38593 7.1433 2.39843C7.5365 2.65013 7.9665 2.84083 8.4183 2.96393C8.6819 3.03313 8.9493 3.08743 9.2192 3.12653C9.9685 3.24953 10.8123 3.38943 11.3682 3.94083C11.9312 3.38943 12.7751 3.24953 13.5244 3.12653C13.7952 3.08723 14.0636 3.03243 14.3281 2.96253C14.7801 2.83993 15.2102 2.64923 15.6032 2.39703C15.6204 2.38453 15.6409 2.37693 15.6622 2.37513C15.6836 2.37333 15.705 2.37743 15.7241 2.38703C15.7433 2.39653 15.7594 2.41103 15.7706 2.42903C15.7819 2.44703 15.7879 2.46773 15.788 2.48893V3.10953L16.0373 3.02893C16.0547 3.02303 16.0733 3.02133 16.0915 3.02403C16.1097 3.02673 16.127 3.03373 16.1419 3.04443C16.1568 3.05503 16.1688 3.06913 16.1771 3.08543C16.1853 3.10163 16.1894 3.11963 16.1891 3.13783V3.64673L16.4527 3.60713C16.4692 3.60473 16.4861 3.60583 16.5021 3.61033C16.5181 3.61493 16.5329 3.62283 16.5456 3.63363C16.5582 3.64433 16.5684 3.65763 16.5754 3.67253C16.5823 3.68753 16.5859 3.70383 16.586 3.72023V8.02503C16.5857 8.04063 16.5823 8.05613 16.5759 8.07043C16.5695 8.08473 16.5602 8.09763 16.5487 8.10843C16.5369 8.11893 16.5231 8.12703 16.5081 8.13213C16.4931 8.13723 16.4772 8.13923 16.4613 8.13813C16.1967 8.34663 15.864 8.45263 15.5258 8.43643C12.4484 8.43643 12.9155 8.69083 11.9943 9.01323C11.9943 9.24923 11.7507 9.39493 11.3682 9.39493C10.9857 9.39493 10.7522 9.25353 10.7464 9.01463C9.8252 8.69083 9.7436 8.40103 7.2135 8.40103C6.467 8.40103 6.2794 8.13813 6.2794 8.13813C6.2635 8.13943 6.2476 8.13743 6.2325 8.13233C6.2175 8.12723 6.2037 8.11903 6.192 8.10843C6.1802 8.09783 6.1708 8.08503 6.1643 8.07063C6.1579 8.05623 6.1546 8.04073 6.1547 8.02503L6.1648 3.72163ZM11.3052 11.907C11.4464 12.0144 11.5932 12.1145 11.745 12.2067C12.0473 12.4018 11.9384 12.8669 11.6361 13.3264C11.5487 13.4678 11.265 13.8777 11.298 14.7528C11.3347 15.117 11.4315 15.4727 11.5845 15.806C11.2899 15.7887 10.9943 15.8049 10.7034 15.8541C10.6802 15.8587 10.6562 15.8569 10.634 15.8489C10.6117 15.841 10.5922 15.8271 10.5774 15.8089C10.49 15.7071 10.4026 15.6025 10.3095 15.5063C9.8539 15.0214 8.8911 14.8617 8.4327 14.7613C8.2894 14.7345 7.4628 14.5281 7.3539 14.4899C7.303 14.4648 7.2503 14.4436 7.1963 14.4263C7.0643 14.4142 6.9385 14.3652 6.8338 14.2849C6.7045 14.1799 6.5911 14.057 6.4971 13.9202C6.3954 13.7604 6.3037 13.595 6.2106 13.431C6.1932 13.4 6.1673 13.3744 6.1359 13.3571C6.1045 13.3399 6.0688 13.3317 6.033 13.3335C5.9886 13.3408 5.9477 13.3619 5.9163 13.3937C5.8849 13.4254 5.8645 13.4662 5.8582 13.5102C5.8507 13.676 5.8979 13.8397 5.9928 13.9767C6.0258 14.029 6.063 14.0799 6.0974 14.1308C5.9771 14.1131 5.8587 14.0847 5.7436 14.046C5.6462 14.0058 5.5461 13.9723 5.4441 13.9456C5.2636 13.9159 4.6676 13.7477 4.4413 12.6535C4.3908 12.2106 4.4442 11.7622 4.5974 11.343C6.8291 10.7802 9.1221 10.4887 11.4255 10.4749H11.7278C11.7086 10.4964 11.6979 10.524 11.6979 10.5527C11.6979 10.5813 11.7086 10.609 11.7278 10.6304C11.8109 10.7365 12.1891 11.0023 12.2908 11.2426C12.5287 11.8236 12.3768 12.0738 12.3166 12.1686C12.3066 12.1686 12.3037 12.1686 12.3009 12.1686L12.2622 12.1459C12.0172 11.9947 11.4742 11.5564 11.4155 11.5267C11.2837 11.4561 11.2163 11.4956 11.1633 11.5677C11.1103 11.6398 11.1862 11.8137 11.3052 11.907ZM12.0215 14.0276C12.0501 13.4395 12.9126 12.5008 12.8281 11.6978C12.7791 11.2481 12.5657 10.8314 12.2278 10.5258L12.1605 10.4862C13.293 10.5196 14.4223 10.6235 15.5415 10.7973C15.7518 10.987 15.9512 11.1881 16.139 11.3995C16.0903 11.3995 15.5659 11.2892 15.4226 11.2836C15.0903 11.2935 14.563 11.3472 14.6261 11.6285C14.6734 11.7473 14.9384 11.7105 15.0029 11.702C15.2056 11.6576 15.4149 11.6504 15.6203 11.6808C15.8902 11.7191 16.1349 11.8583 16.3037 12.0696C17.6118 14.1294 14.8854 15.3706 13.6648 15.8202C12.7192 16.0987 11.8854 15.5007 12.0229 14.029L12.0215 14.0276ZM1.1232 6.93643L1.0917 6.90533V6.86153C1.1182 6.69123 1.1888 6.53053 1.2966 6.39503C1.2265 6.33793 1.1686 6.26783 1.1261 6.18863C1.0421 6.01163 1.0295 5.80983 1.0907 5.62393C1.1518 5.43813 1.2823 5.28223 1.4556 5.18773C1.5388 5.14863 1.6287 5.12563 1.7206 5.11983C1.7156 4.94113 1.7549 4.76403 1.8352 4.60383L1.8553 4.56563L1.8983 4.55433C2.0756 4.52563 2.2575 4.54373 2.4255 4.60663C2.4813 4.47633 2.5761 4.36593 2.6972 4.29013C2.8183 4.21433 2.9599 4.17683 3.1032 4.18253C3.2452 4.17753 3.3854 4.21513 3.5053 4.29033C3.6253 4.36553 3.7193 4.47483 3.7751 4.60383C3.9414 4.54653 4.1192 4.52913 4.2937 4.55293L4.3381 4.56003L4.3625 4.59673C4.4459 4.75733 4.4849 4.93683 4.4756 5.11703C4.5685 5.12283 4.6594 5.14583 4.7436 5.18483C4.9169 5.27933 5.0473 5.43533 5.1085 5.62113C5.1696 5.80693 5.157 6.00883 5.0731 6.18573C5.0311 6.26373 4.9742 6.33283 4.9054 6.38933C5.0078 6.52543 5.0765 6.68323 5.106 6.85023V6.89263L5.0788 6.92653C4.9571 7.05263 4.804 7.14473 4.6347 7.19373C4.6682 7.33423 4.6591 7.48143 4.6086 7.61683C4.558 7.75233 4.4683 7.87013 4.3504 7.95573C4.2326 8.04123 4.0919 8.09073 3.9458 8.09803C3.7997 8.10533 3.6546 8.07013 3.5287 7.99673C3.4284 8.13253 3.2987 8.24453 3.149 8.32473L3.1089 8.34453L3.0673 8.32753C2.9112 8.25323 2.7781 8.13903 2.6819 7.99673C2.5583 8.07563 2.4127 8.11453 2.2655 8.10793C2.1184 8.10133 1.977 8.04963 1.861 7.95993C1.7386 7.87873 1.6451 7.76163 1.5937 7.62523C1.5423 7.48873 1.5356 7.33983 1.5745 7.19943C1.4051 7.14813 1.2505 7.05803 1.1232 6.93643ZM4.0143 13.1158C3.475 12.849 3.0634 12.384 2.8682 11.8208C3.2149 11.7133 3.6003 11.6003 4.0229 11.4857C3.9986 11.5875 3.9771 11.6964 3.9613 11.8123C3.8309 12.7482 4.0072 13.0762 4.0143 13.1158ZM6.3281 16.3673C6.3692 16.3926 6.4072 16.4224 6.4413 16.4564C6.6519 16.6656 6.6189 17.1632 7.2421 17.7923C7.432 17.9604 7.6434 18.103 7.8711 18.2164C8.7536 18.6222 9.1605 18.4384 9.3252 18.4186C9.3138 18.4497 9.3066 18.4808 9.2937 18.5091C7.5086 21.6065 7.1447 24.1328 7.3797 26.0738C6.6685 25.5362 6.0143 24.929 5.4269 24.2615C4.1146 22.7756 3.0888 20.9576 2.3754 18.8583C1.6791 16.7658 1.3086 14.5813 1.2765 12.3792C1.5315 12.2788 1.914 12.1375 2.4011 11.9749C2.4293 12.0709 2.4628 12.1653 2.5014 12.2576C2.6284 12.5334 2.8035 12.7851 3.0186 13.0012C3.4831 13.4555 3.9955 13.8593 4.5473 14.2057C5.5587 14.733 7.0903 15.1147 7.202 15.143C7.3138 15.1713 8.0344 15.4102 8.2049 15.4385C8.2763 15.4442 8.3469 15.4575 8.4155 15.4781C8.6103 15.5487 9.8696 15.7467 9.9398 16.3418C9.9789 16.5772 9.9522 16.8187 9.8625 17.0402C9.8262 17.1459 9.7811 17.2486 9.7278 17.347C9.6934 17.3145 9.6103 16.8381 8.7249 16.4069C7.8395 15.9757 7.149 16.2188 6.8224 16.1694C6.6593 16.1463 6.493 16.1724 6.3453 16.2443C6.2636 16.2796 6.2622 16.3178 6.3281 16.3673ZM20.4255 18.854C19.7264 20.9548 18.7063 22.7756 17.4069 24.2629C17.3653 24.3109 17.3209 24.3576 17.2779 24.4042C16.6542 24.2706 16.0179 24.2029 15.3797 24.2021C13.0874 24.1045 11.9413 23.2125 12.3453 21.8468C12.3582 21.8044 12.4198 21.6701 12.3352 21.5895C12.2507 21.509 12.1418 21.5754 12.096 21.5994C10.1734 22.6244 9.5645 25.9819 9.5645 25.9819C9.5645 25.9819 9.4699 23.3623 11.3195 21.6122C13.1691 19.862 14.7264 20.2154 14.7951 20.2154C15.5458 20.3907 15.5903 20.0557 15.6246 19.9878C15.6851 19.8671 15.7262 19.7379 15.7464 19.6047C15.7476 19.5793 15.754 19.5543 15.7653 19.5315C15.7767 19.5086 15.7927 19.4883 15.8123 19.4718C15.8799 19.4167 15.9392 19.3524 15.9885 19.281C16.0645 19.1551 16.543 18.2829 16.1533 17.9422C16.0991 17.8843 16.0322 17.8394 15.9577 17.8109C15.8832 17.7825 15.8031 17.7713 15.7235 17.7782C15.6662 17.7718 15.6108 17.7545 15.5602 17.7273C15.3818 17.6408 15.1963 17.5694 15.0057 17.5138C14.8345 17.4641 14.6685 17.3982 14.51 17.3173C14.4107 17.273 14.3305 17.1953 14.2837 17.0982C14.1404 16.6995 13.7522 16.4846 13.6805 16.4337C14.2722 16.274 14.8359 16.0266 15.3524 15.7C16.5917 14.8871 16.8639 14.3259 16.8639 14.3259C16.9415 14.1654 17.0732 14.0365 17.2364 13.9612C17.4179 13.8782 17.5844 13.7665 17.7292 13.6303C17.7292 13.6303 17.9183 13.4706 17.8209 13.3009C17.7235 13.1313 17.4799 13.2529 17.4069 13.3009C17.3351 13.3537 17.2516 13.3886 17.1633 13.4027C17.1801 13.3092 17.1801 13.2135 17.1633 13.12C17.0845 12.0965 16.8037 11.7784 16.5903 11.3882C16.4939 11.2197 16.3801 11.0614 16.2507 10.916C18.0387 11.2334 19.7906 11.7235 21.4814 12.3792C21.4643 14.5778 21.1083 16.7611 20.4255 18.854ZM21.5874 6.85303V6.89543L21.5602 6.92933C21.4366 7.05523 21.2813 7.14653 21.1103 7.19373C21.1438 7.33423 21.1348 7.48143 21.0842 7.61683C21.0337 7.75233 20.9439 7.87013 20.8261 7.95573C20.7083 8.04123 20.5675 8.09073 20.4214 8.09803C20.2753 8.10533 20.1303 8.07013 20.0043 7.99673C19.904 8.13303 19.7737 8.24523 19.6232 8.32473L19.5845 8.34453L19.543 8.32753C19.3869 8.25323 19.2538 8.13903 19.1576 7.99673C19.032 8.07083 18.8871 8.10683 18.741 8.10023C18.5948 8.09373 18.4538 8.04493 18.3355 7.96003C18.2172 7.87503 18.1268 7.75763 18.0756 7.62243C18.0243 7.48723 18.0145 7.34013 18.0473 7.19943C17.8788 7.14943 17.725 7.06023 17.5989 6.93923L17.5673 6.90813V6.86433C17.5929 6.69403 17.663 6.53323 17.7708 6.39783C17.7015 6.34003 17.6437 6.27003 17.6003 6.19143C17.5409 6.08473 17.5098 5.96503 17.5099 5.84333C17.5099 5.72173 17.5411 5.60203 17.6006 5.49543C17.66 5.38873 17.7458 5.29873 17.8499 5.23353C17.9541 5.16843 18.0732 5.13023 18.1963 5.12263C18.1908 4.94523 18.2291 4.76903 18.308 4.60943L18.3281 4.57133L18.3711 4.56003C18.5484 4.53133 18.7303 4.54933 18.8983 4.61233C18.958 4.48543 19.053 4.37793 19.1722 4.30233C19.2915 4.22673 19.43 4.18613 19.5718 4.18523C19.7135 4.18433 19.8526 4.22323 19.9728 4.29733C20.093 4.37143 20.1894 4.47773 20.2507 4.60383C20.4169 4.54583 20.5948 4.52833 20.7693 4.55293L20.8138 4.56003L20.8367 4.59673C20.9223 4.75663 20.962 4.93653 20.9513 5.11703C21.0441 5.12283 21.135 5.14583 21.2192 5.18483C21.3925 5.27933 21.5229 5.43533 21.5841 5.62113C21.6453 5.80693 21.6326 6.00883 21.5487 6.18573C21.5062 6.26333 21.4493 6.33243 21.3811 6.38933C21.4857 6.52583 21.5563 6.68463 21.5874 6.85303Z" fill="white"/>
<path d="M21.118 5.40501C20.9629 5.34221 20.7889 5.34221 20.6337 5.40501C20.416 5.47431 20.2183 5.70761 20.0879 5.89841L20.1022 5.91821L20.3673 5.83341C20.4065 5.82061 20.4492 5.82361 20.4862 5.84191C20.5222 5.86081 20.5494 5.89271 20.5621 5.93091C20.5686 5.94991 20.5711 5.96991 20.5697 5.98981C20.5682 6.00971 20.5627 6.02911 20.5535 6.04691C20.5443 6.06481 20.5316 6.08081 20.5161 6.09391C20.5006 6.10701 20.4827 6.11701 20.4633 6.12321L20.2011 6.20661C20.2011 6.22221 20.2011 6.23911 20.2011 6.25471V6.27161C20.4231 6.35081 20.724 6.42571 20.9432 6.35651C21.1064 6.31641 21.2473 6.21491 21.3358 6.07371C21.3882 5.95471 21.3948 5.82091 21.3541 5.69741C21.3135 5.57401 21.2285 5.46951 21.1151 5.40361L21.118 5.40501Z" fill="white"/>
<path d="M19.5784 6.67332C19.8126 6.67332 20.0024 6.48593 20.0024 6.25483C20.0024 6.02373 19.8126 5.83643 19.5784 5.83643C19.3441 5.83643 19.1543 6.02373 19.1543 6.25483C19.1543 6.48593 19.3441 6.67332 19.5784 6.67332Z" fill="white"/>
<path d="M18.2125 6.35706C18.4317 6.42766 18.7325 6.35696 18.956 6.27216V6.25526C18.956 6.23966 18.956 6.22266 18.956 6.20716L18.6939 6.12376C18.6549 6.11076 18.6226 6.08346 18.6036 6.04736C18.5944 6.02966 18.5889 6.01016 18.5874 5.99026C18.586 5.97036 18.5885 5.95036 18.595 5.93146C18.6013 5.91236 18.6114 5.89466 18.6247 5.87936C18.638 5.86406 18.6542 5.85146 18.6724 5.84246C18.6904 5.83336 18.7101 5.82796 18.7302 5.82646C18.7504 5.82506 18.7707 5.82756 18.7898 5.83396L19.0563 5.91876L19.0707 5.89896C18.9388 5.70816 18.7411 5.47486 18.5248 5.40556C18.439 5.37646 18.3491 5.36066 18.2583 5.35896C18.1826 5.35766 18.1076 5.37366 18.0391 5.40556C17.9253 5.47096 17.8397 5.57526 17.7985 5.69876C17.7573 5.82226 17.7634 5.95636 17.8156 6.07566C17.9054 6.21716 18.0479 6.31826 18.2125 6.35706Z" fill="white"/>
<path d="M20.7572 5.11249C20.7591 4.98719 20.7377 4.86269 20.6942 4.74499C20.5675 4.73619 20.4404 4.75259 20.3202 4.79299C20.3565 4.95469 20.349 5.12289 20.2988 5.28079C20.4345 5.18689 20.5923 5.12899 20.7572 5.11249Z" fill="white"/>
<path d="M19.4247 5.65841V5.37572C19.4247 5.33522 19.441 5.29642 19.47 5.26772C19.499 5.23912 19.5384 5.22301 19.5794 5.22301C19.6205 5.22301 19.6598 5.23912 19.6888 5.26772C19.7179 5.29642 19.7342 5.33522 19.7342 5.37572V5.65841L19.7829 5.67402C19.9261 5.49162 20.0866 5.23721 20.0866 5.01381C20.0866 4.63351 19.9061 4.42432 19.5794 4.42432C19.2528 4.42432 19.0723 4.63921 19.0723 5.01381C19.0723 5.23721 19.2342 5.49162 19.376 5.67402L19.4247 5.65841Z" fill="white"/>
<path d="M18.8635 5.2793C18.8155 5.1229 18.8081 4.9571 18.8421 4.7972C18.7227 4.7552 18.5961 4.7369 18.4696 4.7435C18.4205 4.8588 18.3971 4.9832 18.4008 5.1082C18.5677 5.1238 18.7274 5.1828 18.8635 5.2793Z" fill="white"/>
<path d="M1.94173 6.62538H1.91163C1.82603 6.62288 1.74114 6.60858 1.65944 6.58298C1.59234 6.56108 1.52713 6.53368 1.46463 6.50098C1.39043 6.59838 1.33553 6.70868 1.30273 6.82618C1.39853 6.90858 1.51083 6.97018 1.63223 7.00708C1.69993 6.85548 1.80663 6.72388 1.94173 6.62538Z" fill="white"/>
</svg>
