<svg width="208" height="238" viewBox="0 0 208 238" fill="none" xmlns="http://www.w3.org/2000/svg">
<path d="M108.478 1.59896C105.693 -0.00922298 102.262 -0.00922513 99.4768 1.59896L77.4288 14.3308C77.8586 14.8601 78.2311 15.4392 78.5352 16.0581L122.382 19.3472C123.703 16.3754 126.587 14.2522 129.99 14.021L108.478 1.59896Z" fill="white"/>
<path d="M138.695 19.048C139.279 20.241 139.607 21.5822 139.607 23C139.607 24.2298 139.36 25.402 138.914 26.4698L175.917 62.0223C177.031 61.6196 178.233 61.4 179.486 61.4C182.083 61.4 184.461 62.3436 186.294 63.9068L200.511 54.7443L138.695 19.048Z" fill="white"/>
<path d="M205.779 58.4151L189.557 68.9263C189.835 69.8691 189.984 70.8671 189.984 71.9C189.984 74.7862 188.82 77.4005 186.935 79.2985L204.618 131.075C205.791 131.227 206.894 131.606 207.881 132.165V64.1957C207.881 62.0489 207.116 60.0111 205.779 58.4151Z" fill="white"/>
<path d="M207.881 147.835C207.145 148.252 206.346 148.568 205.5 148.765L191.796 188.289L203.382 181.598C206.166 179.99 207.881 177.02 207.881 173.804V147.835Z" fill="white"/>
<path d="M183.797 192.908L199.378 148.028C197.227 146.935 195.574 145.002 194.851 142.661L162.457 137.387C161.191 144.074 159.159 149.994 156.361 155.149L177.386 196.61L183.797 192.908Z" fill="white"/>
<path d="M172.186 199.612L152.616 160.994C151.364 162.659 150.008 164.221 148.549 165.68C141.255 172.976 131.751 177.662 120.037 179.74L111.932 196.464C113.785 198.295 115.044 200.724 115.397 203.438L162.443 205.239L172.186 199.612Z" fill="white"/>
<path d="M152.702 210.864L114.661 209.412C113.322 212.796 110.49 215.426 106.977 216.488V237.093C107.493 236.911 107.995 236.68 108.478 236.401L152.702 210.864Z" fill="white"/>
<path d="M100.977 237.093V216.734C97.1703 215.92 94.0329 213.298 92.5053 209.811L57.6158 212.228L99.4768 236.401C99.9598 236.68 100.462 236.911 100.977 237.093Z" fill="white"/>
<path d="M48.376 206.892L91.5544 203.873C91.7683 201.575 92.6304 199.465 93.956 197.727L81.285 180.98H56.8871C55.2302 180.98 53.8871 179.637 53.8871 177.98V170.546L36.8472 200.235L48.376 206.892Z" fill="white"/>
<path d="M31.6507 197.234L53.8871 158.498V151.861L13.8582 143.432C13.0651 144.874 11.8883 146.075 10.4654 146.898L23.1147 192.305L31.6507 197.234Z" fill="white"/>
<path d="M15.5749 187.951L4.50857 147.982C2.82851 147.708 1.30478 146.968 0.0739746 145.9V173.804C0.0739746 177.02 1.78908 179.99 4.57333 181.598L15.5749 187.951Z" fill="white"/>
<path d="M0.0739746 132.3C1.39889 131.15 3.06323 130.381 4.89661 130.163L22.5033 82.8364C20.6549 80.9436 19.5158 78.3549 19.5158 75.5001C19.5158 74.1888 19.7561 72.9337 20.1951 71.7764L1.45194 59.4098C0.566425 60.8202 0.0739746 62.4729 0.0739746 64.1957V132.3Z" fill="white"/>
<path d="M6.2537 55.4315L23.8454 67.0029C25.5771 65.7432 27.7087 65.0001 30.0138 65.0001C30.6612 65.0001 31.2949 65.0587 31.9099 65.1709L62.6692 24.517C62.4282 24.1024 62.2194 23.6668 62.0461 23.2136L6.2537 55.4315Z" fill="white"/>
<path d="M198.712 132.347L181.582 82.1906C180.905 82.3279 180.204 82.4 179.486 82.4C178.639 82.4 177.816 82.2997 177.027 82.1104L162.807 103.096C163.62 108.067 164.026 113.448 164.026 119.24C164.026 123.535 163.803 127.606 163.356 131.454L195.106 136.624C195.826 134.844 197.099 133.348 198.712 132.347Z" fill="white"/>
<path d="M171.83 79.0841C171.293 78.5121 170.819 77.8799 170.421 77.1987L155.323 81.613C157.72 85.5823 159.622 90.0528 161.029 95.0243L171.83 79.0841Z" fill="white"/>
<path d="M169.001 71.3625C169.109 69.2323 169.851 67.2695 171.042 65.6594L134.886 30.9202C133.649 31.5896 132.238 31.9778 130.739 31.9991L120.464 58.833C131.982 60.9727 141.344 65.6884 148.549 72.98C149.651 74.0695 150.695 75.2186 151.679 76.4272L169.001 71.3625Z" fill="white"/>
<path d="M14.8261 137.504L53.8871 145.729V139.299L30.8845 85.9645C30.5974 85.9881 30.307 86.0001 30.0138 86.0001C29.2593 86.0001 28.5234 85.9205 27.814 85.7692L10.7991 131.505C12.8775 132.831 14.3755 134.986 14.8261 137.504Z" fill="white"/>
<path d="M37.3219 67.962C38.9188 69.5111 40.0251 71.5634 40.385 73.8631L53.8871 77.3743V60.5C53.8871 58.8432 55.2302 57.5 56.8871 57.5H84.8629L72.2467 28.8214C71.6673 28.9385 71.0677 29 70.4538 29C69.324 29 68.2427 28.7917 67.2464 28.4115L37.3219 67.962Z" fill="white"/>
<path d="M39.571 79.851C38.8664 81.3968 37.7979 82.7418 36.4751 83.7763L53.8871 124.148V83.5739L39.571 79.851Z" fill="white"/>
<path d="M125.05 30.0779L114.373 57.962C111.377 57.654 108.251 57.5 104.997 57.5H91.4178L77.4247 25.6915C78.2624 24.6664 78.8784 23.4532 79.1999 22.1248L121.914 25.329C122.423 27.2352 123.543 28.8921 125.05 30.0779Z" fill="white"/>
<path d="M106.73 193.44C105.703 193.153 104.619 193 103.5 193C101.781 193 100.147 193.361 98.6693 194.012L88.8088 180.98H104.997C107.731 180.98 110.373 180.873 112.925 180.658L106.73 193.44Z" fill="white"/>
<path d="M104.997 158.84C115.555 158.84 123.534 155.66 128.933 149.3C134.452 142.82 137.211 133.7 137.211 121.94V116.54C137.211 104.78 134.452 95.72 128.933 89.36C123.534 82.88 115.555 79.64 104.997 79.64H82.9822C81.3253 79.64 79.9821 80.9832 79.9821 82.64V155.84C79.9821 157.497 81.3253 158.84 82.9821 158.84H104.997Z" fill="white"/>
</svg>
